<?xml version="1.0" encoding="UTF-8" standalone="no"?>
<svg
   xmlns:dc="http://purl.org/dc/elements/1.1/"
   xmlns:cc="http://creativecommons.org/ns#"
   xmlns:rdf="http://www.w3.org/1999/02/22-rdf-syntax-ns#"
   xmlns:svg="http://www.w3.org/2000/svg"
   xmlns="http://www.w3.org/2000/svg"
   viewBox="0 0 453.58667 95.386665"
   height="95.386665"
   width="453.58667"
   xml:space="preserve"
   id="svg2"
   version="1.1"><metadata
     id="metadata8"><rdf:RDF><cc:Work
         rdf:about=""><dc:format>image/svg+xml</dc:format><dc:type
           rdf:resource="http://purl.org/dc/dcmitype/StillImage" /></cc:Work></rdf:RDF></metadata><defs
     id="defs6" /><g
     transform="matrix(1.3333333,0,0,-1.3333333,0,95.386667)"
     id="g10"><g
       transform="scale(0.1)"
       id="g12"><path
         id="path14"
         style="fill:#040606;fill-opacity:1;fill-rule:nonzero;stroke:none"
         d="m 751.047,664.824 c 0,30.957 -18.84,30.957 -40.399,30.957 l -1.98,1.614 v 6.64 c 0,4.344 2.75,4.735 7.07,4.735 10.2,0 35.309,-1.993 53.75,-1.993 19.598,0 39.617,1.993 59.239,1.993 l 1.171,-1.219 v -10.156 l -1.949,-1.614 h -4.711 c -25.523,0 -36.898,-2.734 -36.898,-32.148 V 549.836 c 0,-56.496 10.988,-100.781 78.48,-100.781 70.219,0 92.969,33.699 92.969,100.027 v 101.984 c 0,44.715 0,41.61 -34.512,44.715 l -1.578,3.145 v 7.461 l 1.188,2.383 c 7.031,0 14.89,-1.993 44.332,-1.993 16.469,0 37.261,1.993 49.821,1.993 l 1.56,-2.383 v -8.211 l -2.36,-2.395 c -28.623,0 -38.814,-1.57 -38.814,-21.16 v -140.07 c 0,-71.77 -42,-108.262 -113.379,-108.262 -56.906,0 -113,20 -113,85.488 v 153.047" /><path
         id="path16"
         style="fill:#040606;fill-opacity:1;fill-rule:nonzero;stroke:none"
         d="m 1041.01,603.633 c 0,5.898 -0.3,7.363 -1.48,9.707 -2.64,5.019 -15.58,15.566 -20.58,15.898 l -15.59,0.879 c -1.17,0 -1.43,2.922 -1.43,5.266 0,1.484 0,3.828 1.43,3.828 9.13,0 16.18,0.574 23.52,0.574 13.55,0 35,-1.14 40.29,-1.765 l 89.08,-107.551 c 13.49,-16.477 26.74,-31.758 47.93,-52.949 h 1.15 v 129.375 c 0,19.355 -7.06,22.343 -16.47,22.617 l -12.63,0.605 c -1.19,0 -1.77,2.922 -1.77,4.961 0,1.789 0.89,4.707 2.64,4.707 6.49,0 21.76,-1.453 36.16,-1.453 13.22,0 27.35,1.453 35.59,1.453 1.44,0 1.76,-1.14 1.76,-2.363 v -5.547 c 0,-1.484 -0.61,-1.758 -2.64,-1.758 h -7.65 c -20.26,0 -20.26,-10.32 -20.26,-35.293 V 424.629 h -7.1 L 1054.24,605.984 V 471.055 c 0,-25.262 3.52,-28.211 28.81,-29.102 1.17,0 2.07,-2.629 2.07,-4.98 0,-2.344 -0.32,-4.727 -1.18,-4.727 -5.59,0 -24.43,1.492 -36.74,1.492 -14.45,0 -20.89,-1.492 -34.41,-1.492 -1.76,0 -2.06,2.09 -2.06,5.899 0,2.648 0.3,3.808 3.84,3.808 12.31,0 26.44,2.93 26.44,17.93 v 143.75" /><path
         id="path18"
         style="fill:#040606;fill-opacity:1;fill-rule:nonzero;stroke:none"
         d="m 1327.75,486.652 c 0,-42.929 0.87,-43.222 29.67,-44.699 l 1.47,-2.07 v -5.547 c 0,-1.758 -4.38,-2.09 -7.04,-2.09 -4.12,0 -23.82,1.504 -35.86,1.504 -14.13,0 -28.53,-1.504 -43.81,-1.504 -1.17,0.606 -1.46,2.383 -1.46,5.293 0.29,3.82 0.88,4.414 9.4,4.414 20.28,0 21.17,4.406 21.17,26.758 v 140.527 c 0,16.75 -5.01,20.879 -29.69,20.879 l -0.88,1.426 -0.58,4.758 c 0.27,3.203 2.92,3.484 4.68,3.484 7.98,0 17.36,-1.445 37.35,-1.445 14.69,0 32.35,1.445 44.07,1.445 l 1.5,-2.07 v -5.242 l -1.18,-1.778 -7.92,-0.578 c -11.79,-0.879 -20.89,-2.078 -20.89,-15.625 v -127.84" /><path
         id="path20"
         style="fill:#040606;fill-opacity:1;fill-rule:nonzero;stroke:none"
         d="m 1400.64,620.117 c -3.24,7.922 -14.98,9.981 -23.22,9.981 l -1.77,1.457 v 7.644 l 3.24,0.578 c 12.34,0 30.27,-1.445 36.72,-1.445 13.55,0 26.76,1.445 40.31,1.445 l 0.85,-0.851 -0.85,-8.242 -13.83,-1.161 c -4.7,-0.293 -10,-2.05 -10,-6.476 0,-2.352 1.48,-6.172 2.64,-8.817 l 33.82,-88.214 19.1,-43.797 c 2.07,-4.387 2.35,-5.254 3.23,-5.254 0.59,0 1.47,1.18 2.64,4.695 l 42.04,111.399 c 4.71,12.664 8.24,23.523 7.94,27.058 -0.28,4.961 -1.74,7.61 -10.28,8.508 l -15.29,1.473 -1.77,0.879 v 9.132 c 11.48,0 22.93,-1.777 34.39,-1.777 9.14,0 28.52,1.777 30.57,1.777 l 2.37,-1.183 v -6.778 l -2.64,-2.05 -9.13,-0.575 c -5.87,-0.293 -8.23,-3.261 -12.36,-13.554 -27.92,-67.309 -34.68,-88.449 -57.01,-145.207 l -15,-38.196 c -1.46,-4.148 -2.04,-4.414 -4.1,-4.414 -2.66,0 -3.24,0.871 -3.82,2.051 l -78.79,189.914" /><path
         id="path22"
         style="fill:#040606;fill-opacity:1;fill-rule:nonzero;stroke:none"
         d="m 1628.29,609.824 c 0,19.074 -14.42,21.164 -31.44,21.164 -1.19,0 -1.19,1.485 -1.19,2.637 v 3.242 c 0,2.645 4.99,2.918 15.31,2.918 11.75,0 24.97,-1.453 37.31,-1.453 11.78,0 23.5,1.453 35.29,1.453 h 62.02 c 2.34,0 2.64,-2.637 2.64,-5.859 v -35.879 c 0,-1.172 -0.58,-2.356 -2.07,-2.356 -2.33,0 -7.03,-0.269 -7.34,3.235 l -0.86,9.133 c -1.79,18.816 -14.71,22.05 -31.18,22.05 h -30.28 c -16.44,0 -21.75,-3.535 -21.75,-25.863 v -53.219 c 0,-0.879 1.78,-2.367 2.35,-2.367 l 34.68,1.176 c 17.65,0.605 22.64,6.172 27.06,21.785 0.58,1.746 1.45,2.363 4.68,2.363 2.06,0 3.56,-0.351 3.56,-1.796 0,-6.18 -1.77,-19.708 -1.77,-29.383 0,-15.891 1.77,-24.414 1.77,-29.407 0,-1.765 -2.93,-3.535 -4.72,-3.535 -2.35,0 -4.4,0.891 -4.99,3.848 -1.46,7.891 -1.46,13.484 -2.95,17.598 -1.46,4.414 -4.99,6.484 -13.8,6.789 l -41.75,0.855 c -4.12,0 -4.12,-1.441 -4.12,-3.492 v -70.012 c 0,-21.14 15.58,-21.726 35.87,-21.726 h 15.88 c 15.57,0 26.45,0.308 33.79,4.722 6.46,3.789 15.58,21.723 18.82,29.075 3.82,0 8.81,-0.868 8.81,-2.918 0,-0.903 -0.87,-3.235 -1.45,-4.707 l -8.26,-29.692 c -2.34,-7.957 -3.81,-7.957 -7.62,-7.957 -31.75,0 -62.93,1.504 -105.56,1.504 -9.68,0 -34.38,-1.504 -49.37,-1.504 -0.88,0 -1.75,2.942 -1.75,4.727 0,2.343 0.57,4.98 1.75,4.98 25.57,1.192 32.63,3.84 32.63,30.879 v 136.992" /><path
         id="path24"
         style="fill:#040606;fill-opacity:1;fill-rule:nonzero;stroke:none"
         d="m 1843.49,545.449 c 3.85,-0.301 7.38,-0.613 11.17,-0.613 23.53,0 52.94,8.25 52.94,42.937 0,25.84 -17.66,42.618 -43.52,42.618 -19.98,0 -20.59,-4.696 -20.59,-13.516 z m -26.44,62.617 c 0,14.668 -0.58,22.051 -19.09,22.051 h -12.05 c -1.78,0 -2.08,3.215 -2.08,5.567 0,1.476 0.88,4.101 2.08,4.101 17.03,0 34.38,-0.859 51.41,-0.859 13.55,0 26.76,0.859 40.31,0.859 29.97,0 59.35,-20 59.35,-50.832 0,-26.734 -24.41,-44.676 -47.3,-48.23 v -0.567 c 11.43,-2.636 23.51,-24.109 26.42,-28.789 l 32.34,-49.426 c 10.31,-15.593 17.07,-18.523 34.7,-19.402 l 1.77,-1.746 v -5.605 c 0,-2.61 -2.06,-2.942 -3.24,-2.942 -6.17,0 -15.28,0.906 -19.69,0.906 -7.05,0 -14.15,-0.906 -21.17,-0.906 -6.75,0 -19.97,19.707 -37.35,50.559 -19.08,33.828 -30.27,52.363 -49.65,52.363 -2.36,0 -5.89,0 -10.32,-0.617 v -72.024 c 0,-10.574 0,-20.574 14.72,-20.574 11.17,0 16.16,0 16.16,-2.312 0,-5.598 -0.86,-7.395 -5.28,-7.395 -15.28,0 -27.92,1.504 -40.55,1.504 -5.03,0 -37.67,-1.504 -41.76,-1.504 -1.78,0 -2.36,3.82 -2.36,6.199 0,2.629 1.17,3.227 7.07,3.508 20.27,0.891 25.56,3.828 25.56,24.133 v 141.98" /><path
         id="path26"
         style="fill:#040606;fill-opacity:1;fill-rule:nonzero;stroke:none"
         d="m 2030.16,539.258 c -21.14,12.656 -29.66,24.433 -29.66,47.305 0,36.777 30,57.335 69.64,57.335 11.17,0 27.05,-3.789 37.06,-8.214 l 2.06,-36.758 v -1.453 c 0,-1.489 -2.96,-2.051 -7.07,-2.051 -3.83,0 -4.39,1.746 -4.71,4.668 -2.06,19.707 -16.17,32.383 -37.04,32.383 -20,0 -35.56,-14.114 -35.56,-32.961 0,-21.153 12.92,-29.375 42.32,-44.949 29.09,-15.305 54.37,-28.79 54.37,-65.559 0,-40.012 -36.13,-60.84 -72.89,-60.84 -12.06,0 -32.04,3.809 -43.2,8.516 -2.33,1.172 -3.24,4.992 -4.12,11.465 l -3.51,27.628 c 0,1.747 5.86,1.747 7.63,1.747 0.88,0 1.75,-0.555 2.35,-2.625 6.75,-22.336 22.05,-35.266 45.56,-35.266 20.59,0 40.27,17.93 40.27,37.891 0,19.121 -10.86,30.585 -26.16,39.687 l -37.34,22.051" /><path
         id="path28"
         style="fill:#040606;fill-opacity:1;fill-rule:nonzero;stroke:none"
         d="m 2205.67,486.652 c 0,-42.929 0.91,-43.222 29.7,-44.699 l 1.48,-2.07 v -5.547 c 0,-1.758 -4.42,-2.09 -7.05,-2.09 -4.15,0 -23.81,1.504 -35.88,1.504 -14.1,0 -28.5,-1.504 -43.79,-1.504 -1.17,0.606 -1.46,2.383 -1.46,5.293 0.29,3.82 0.88,4.414 9.43,4.414 20.25,0 21.13,4.406 21.13,26.758 v 140.527 c 0,16.75 -5,20.879 -29.68,20.879 l -0.88,1.426 -0.59,4.758 c 0.29,3.203 2.93,3.484 4.7,3.484 7.94,0 17.33,-1.445 37.33,-1.445 14.72,0 32.33,1.445 44.12,1.445 l 1.46,-2.07 v -5.242 l -1.17,-1.778 -7.98,-0.578 c -11.74,-0.879 -20.87,-2.078 -20.87,-15.625 v -127.84" /><path
         id="path30"
         style="fill:#040606;fill-opacity:1;fill-rule:nonzero;stroke:none"
         d="m 2364.27,463.73 c 0,-21.777 14.68,-21.777 32.91,-21.777 l 1.79,-1.445 v -4.715 c 0,-3.547 -1.5,-3.547 -6.18,-3.547 -5.89,0 -20.32,1.492 -40.87,1.492 -16.17,0 -41.44,-1.492 -48.51,-1.492 -0.58,2.09 -1.16,3.547 -1.16,5.293 0,0.906 0.3,2.664 1.16,3.254 l 2.99,1.16 h 3.46 c 26.77,0 27.93,9.141 27.93,33.527 v 139.344 l -0.86,13.508 h -39.38 c -22.38,0 -25.86,-14.094 -31.47,-32.91 -0.58,-1.777 -1.74,-2.649 -3.55,-2.649 -4.06,0 -6.72,1.18 -6.72,2.918 0,5.012 3.52,32.348 3.52,55.59 0,1.153 4.12,1.153 8.2,1.153 9.43,-12.649 12.38,-12.649 25,-12.649 h 109.37 c 20.55,0 26.43,6.192 33.8,15.305 2.03,0 8.82,0 8.82,-2.656 0,-2.356 -5.89,-26.438 -6.46,-47.629 0,-3.203 -0.86,-9.383 -2.36,-9.383 -2.63,0 -9.42,1.441 -9.42,2.918 l -1.15,14.726 c -1.19,14.973 -8.23,15.266 -20.31,15.266 h -40.55 V 463.73" /><path
         id="path32"
         style="fill:#040606;fill-opacity:1;fill-rule:nonzero;stroke:none"
         d="m 2491.49,609.824 c 0,19.074 -14.4,21.164 -31.44,21.164 -1.2,0 -1.2,1.485 -1.2,2.637 v 3.242 c 0,2.645 5,2.918 15.32,2.918 11.76,0 24.98,-1.453 37.31,-1.453 11.77,0 23.53,1.453 35.3,1.453 h 62 c 2.34,0 2.66,-2.637 2.66,-5.859 v -35.879 c 0,-1.172 -0.58,-2.356 -2.09,-2.356 -2.3,0 -7.03,-0.269 -7.35,3.235 l -0.86,9.133 c -1.77,18.816 -14.66,22.05 -31.17,22.05 h -30.27 c -16.45,0 -21.76,-3.535 -21.76,-25.863 v -53.219 c 0,-0.879 1.78,-2.367 2.34,-2.367 l 34.7,1.176 c 17.64,0.605 22.63,6.172 27.06,21.785 0.61,1.746 1.47,2.363 4.68,2.363 2.06,0 3.52,-0.351 3.52,-1.796 0,-6.18 -1.73,-19.708 -1.73,-29.383 0,-15.891 1.73,-24.414 1.73,-29.407 0,-1.765 -2.91,-3.535 -4.66,-3.535 -2.37,0 -4.42,0.891 -5.03,3.848 -1.42,7.891 -1.42,13.484 -2.94,17.598 -1.47,4.414 -4.99,6.484 -13.76,6.789 l -41.78,0.855 c -4.13,0 -4.13,-1.441 -4.13,-3.492 v -70.012 c 0,-21.14 15.59,-21.726 35.87,-21.726 h 15.85 c 15.58,0 26.48,0.308 33.83,4.722 6.52,3.789 15.58,21.723 18.83,29.075 3.82,0 8.82,-0.868 8.82,-2.918 0,-0.903 -0.86,-3.235 -1.47,-4.707 l -8.25,-29.692 c -2.35,-7.957 -3.82,-7.957 -7.64,-7.957 -31.74,0 -62.93,1.504 -105.57,1.504 -9.64,0 -34.36,-1.504 -49.36,-1.504 -0.86,0 -1.79,2.942 -1.79,4.727 0,2.343 0.65,4.98 1.79,4.98 25.57,1.192 32.64,3.84 32.64,30.879 v 136.992" /><path
         id="path34"
         style="fill:#040606;fill-opacity:1;fill-rule:nonzero;stroke:none"
         d="m 2711.66,486.652 c 0,-42.929 0.91,-43.222 29.7,-44.699 l 1.42,-2.07 v -5.547 c 0,-1.758 -4.37,-2.09 -7.02,-2.09 -4.14,0 -23.8,1.504 -35.83,1.504 -14.15,0 -28.51,-1.504 -43.81,-1.504 -1.17,0.606 -1.48,2.383 -1.48,5.293 0.31,3.82 0.88,4.414 9.42,4.414 20.29,0 21.15,4.406 21.15,26.758 v 140.527 c 0,16.75 -4.98,20.879 -29.69,20.879 l -0.88,1.426 -0.57,4.758 c 0.28,3.203 2.91,3.484 4.71,3.484 7.93,0 17.32,-1.445 37.29,-1.445 14.71,0 32.34,1.445 44.12,1.445 l 1.44,-2.07 v -5.242 l -1.15,-1.778 -7.93,-0.578 c -11.78,-0.879 -20.89,-2.078 -20.89,-15.625 v -127.84" /><path
         id="path36"
         style="fill:#040606;fill-opacity:1;fill-rule:nonzero;stroke:none"
         d="m 2864.6,463.73 c 0,-21.777 14.72,-21.777 32.96,-21.777 l 1.72,-1.445 v -4.715 c 0,-3.547 -1.48,-3.547 -6.15,-3.547 -5.88,0 -20.29,1.492 -40.82,1.492 -16.21,0 -41.46,-1.492 -48.57,-1.492 -0.55,2.09 -1.15,3.547 -1.15,5.293 0,0.906 0.29,2.664 1.15,3.254 l 2.97,1.16 h 3.53 c 26.74,0 27.91,9.141 27.91,33.527 v 139.344 l -0.9,13.508 h -39.35 c -22.37,0 -25.84,-14.094 -31.44,-32.91 -0.6,-1.777 -1.79,-2.649 -3.56,-2.649 -4.09,0 -6.78,1.18 -6.78,2.918 0,5.012 3.57,32.348 3.57,55.59 0,1.153 4.12,1.153 8.19,1.153 9.44,-12.649 12.34,-12.649 25.02,-12.649 h 109.35 c 20.57,0 26.43,6.192 33.83,15.305 2.03,0 8.81,0 8.81,-2.656 0,-2.356 -5.88,-26.438 -6.51,-47.629 0,-3.203 -0.84,-9.383 -2.3,-9.383 -2.66,0 -9.43,1.441 -9.43,2.918 l -1.18,14.726 c -1.17,14.973 -8.26,15.266 -20.33,15.266 H 2864.6 V 463.73" /><path
         id="path38"
         style="fill:#040606;fill-opacity:1;fill-rule:nonzero;stroke:none"
         d="m 733.633,195.488 c -3.203,7.918 -14.981,9.981 -23.192,9.981 l -1.777,1.457 v 7.644 l 3.254,0.578 c 12.293,0 30.211,-1.449 36.734,-1.449 13.512,0 26.711,1.449 40.258,1.449 l 0.918,-0.851 -0.918,-8.242 -13.808,-1.16 c -4.692,-0.293 -9.981,-2.051 -9.981,-6.477 0,-2.352 1.473,-6.172 2.629,-8.816 l 33.793,-88.215 19.152,-43.7972 c 1.996,-4.3867 2.336,-5.2539 3.207,-5.2539 0.61,0 1.489,1.1797 2.661,4.6954 L 868.578,168.43 c 4.703,12.664 8.215,23.523 7.965,27.058 -0.313,4.961 -1.789,7.61 -10.293,8.496 l -15.289,1.485 -1.77,0.879 v 9.132 c 11.457,0 22.918,-1.781 34.379,-1.781 9.11,0 28.532,1.781 30.582,1.781 l 2.328,-1.183 v -6.777 l -2.636,-2.051 -9.09,-0.574 c -5.902,-0.293 -8.231,-3.262 -12.371,-13.555 -27.91,-67.309 -34.645,-88.449 -57.012,-145.2072 L 820.344,7.94141 c -1.422,-4.15235 -2.031,-4.41407 -4.114,-4.41407 -2.605,0 -3.226,0.86719 -3.789,2.04688 L 733.633,195.488" /><path
         id="path40"
         style="fill:#040606;fill-opacity:1;fill-rule:nonzero;stroke:none"
         d="m 1004.71,101.387 -32.64,84.074 H 971.5 L 943.59,101.387 Z M 939.758,89.9492 926.809,48.2031 c -2.34,-7.6367 -3.512,-14.414 -3.512,-19.1211 0,-9.6797 13.824,-11.7578 21.754,-11.7578 2.648,0 3.215,-1.7578 3.215,-5.5664 0,-2.94921 -0.258,-4.14842 -2.309,-4.14842 -6.758,0 -28.258,1.51171 -36.211,1.51171 -7.887,0 -20.23,-1.51171 -29.047,-1.51171 -5.898,0 -5.898,0.91796 -5.898,4.74612 v 3.2109 c 0,1.4766 2.644,2.082 9.676,2.6563 15.281,1.4648 17.382,4.4062 22.98,20.5664 l 58.141,169.3239 c 5.902,4.985 12.07,11.758 19.453,14.145 L 1058.82,36.1523 c 5,-12.3359 10.26,-18.5039 27.36,-18.5039 3.22,0 3.78,-3.5664 3.78,-6.7812 0,-3.25782 -2.05,-3.25782 -5.6,-3.25782 -4.68,0 -23.5,1.51171 -34.96,1.51171 -11.76,0 -23.53,-0.59375 -35.26,-1.51171 -4.38,0 -4.74,0.91796 -4.74,5.05862 0,3.1992 1.79,4.6562 5.92,4.6562 4.42,0 18.79,0.8985 18.79,7.9688 0,2.3164 -1.16,7.0312 -5.29,17.3164 l -18.8,47.3398 h -70.262" /><path
         id="path42"
         style="fill:#040606;fill-opacity:1;fill-rule:nonzero;stroke:none"
         d="m 1126.29,179.004 c 0,5.898 -0.36,7.363 -1.51,9.707 -2.62,5.019 -15.6,15.566 -20.55,15.898 l -15.62,0.879 c -1.15,0 -1.5,2.918 -1.5,5.266 0,1.48 0,3.824 1.5,3.824 9.11,0 16.18,0.578 23.53,0.578 13.49,0 34.99,-1.14 40.24,-1.765 l 89.1,-107.551 c 13.52,-16.4767 26.76,-31.758 47.9,-52.9494 h 1.18 V 182.266 c 0,19.355 -7.04,22.343 -16.46,22.617 l -12.63,0.605 c -1.18,0 -1.79,2.918 -1.79,4.961 0,1.785 0.95,4.707 2.69,4.707 6.44,0 21.72,-1.457 36.14,-1.457 13.25,0 27.31,1.457 35.6,1.457 1.48,0 1.75,-1.14 1.75,-2.363 v -5.547 c 0,-1.484 -0.57,-1.758 -2.62,-1.758 h -7.69 c -20.26,0 -20.26,-10.32 -20.26,-35.293 V 0 h -7.1 l -158.7,181.359 V 46.4258 c 0,-25.2656 3.47,-28.211 28.8,-29.1016 1.2,0 2.03,-2.6289 2.03,-4.9804 0,-2.3438 -0.27,-4.72661 -1.13,-4.72661 -5.65,0 -24.41,1.49219 -36.78,1.49219 -14.37,0 -20.85,-1.49219 -34.4,-1.49219 -1.74,0 -2.08,2.08984 -2.08,5.89841 0,2.6446 0.34,3.8086 3.82,3.8086 12.39,0 26.54,2.9297 26.54,17.9297 V 179.004" /><path
         id="path44"
         style="fill:#040606;fill-opacity:1;fill-rule:nonzero;stroke:none"
         d="m 1582.99,132.277 -43.51,112.235 h -0.83 l -37.27,-112.235 z m -86.72,-15.273 -17.28,-55.7149 c -3.13,-10.2032 -4.65,-19.2383 -4.65,-25.5157 0,-12.9531 18.38,-15.6953 29.05,-15.6953 3.49,0 4.31,-2.3515 4.31,-7.4218 0,-3.96489 -0.44,-5.51567 -3.18,-5.51567 -8.99,0 -37.64,1.98046 -48.28,1.98046 -10.52,0 -27.05,-1.98046 -38.82,-1.98046 -7.87,0 -7.87,1.16015 -7.87,6.26567 v 4.3203 c 0,1.9609 3.52,2.7422 12.98,3.5429 20.42,1.9453 23.19,5.8868 30.66,27.461 l 77.65,225.9645 c 7.81,6.664 16.02,15.715 25.84,18.832 l 98.47,-248.3395 c 6.69,-16.4648 13.77,-24.7187 36.47,-24.7187 4.36,0 5.09,-4.6954 5.09,-9.0313 0,-4.29687 -2.69,-4.29687 -7.39,-4.29687 -6.32,0 -31.38,1.98046 -46.75,1.98046 -15.63,0 -31.36,-0.82031 -47.03,-1.98046 -5.86,0 -6.3,1.16015 -6.3,6.67577 0,4.2969 2.35,6.2617 7.91,6.2617 5.9,0 25.1,1.1914 25.1,10.6055 0,3.1055 -1.57,9.4258 -7.13,23.1328 l -25.09,63.1876 h -93.76" /><path
         id="path46"
         style="fill:#040606;fill-opacity:1;fill-rule:nonzero;stroke:none"
         d="m 1907.96,215.156 c 9.11,0 18.49,-0.847 27.91,-0.847 7.38,0 14.99,0.847 22.34,0.847 4.41,0 5.29,-1.14 5.29,-2.058 v -4.692 c 0,-2.047 -0.88,-3.523 -2.09,-3.523 -2.05,0 -5.25,0.597 -8.81,0.597 -17.07,0 -17.07,-8.527 -17.07,-27.648 0,-16.746 3.26,-126.6875 3.26,-142.8593 0,-8.2149 4.13,-17.6485 16.77,-17.6485 11.76,0 13.18,-0.5937 13.18,-3.2422 0,-3.5234 -1.72,-6.47262 -2.6,-6.47262 -15.6,0 -27.91,1.51171 -40.28,1.51171 -12.34,0 -24.98,-1.51171 -37.62,-1.51171 -2.08,0 -2.34,1.1914 -2.34,2.94922 v 2.957 c 0,2.9297 2.64,3.8086 16.16,3.8086 5.9,0 11.16,7.0508 11.16,17.3438 0,31.7383 -1.15,100.242 -2.35,150.527 -1.18,0.266 -0.88,0.266 -0.88,0.266 -16.45,-33.809 -37.9,-82.895 -47.89,-109.0547 L 1834.4,3.78906 c -0.22,-0.85937 -1.13,-1.73828 -2.62,-1.73828 -1.42,0 -2.64,1.48438 -3.5,5.5586 -1.74,7.40232 -4.39,14.44142 -7.38,21.47262 l -55.55,135.254 c -2.08,5 -3.81,8.516 -4.95,8.516 -1.25,0 -1.25,-5.868 -1.25,-9.129 0,-23.235 -3.48,-111.9847 -3.48,-126.4066 0,-12.6367 0,-19.9922 25.88,-19.9922 1.75,0 2.04,-1.457 2.04,-4.9804 0,-1.1719 -0.29,-4.73442 -1.47,-4.73442 -4.14,0 -18.51,1.51171 -34.4,1.51171 -16.71,0 -33.21,-1.51171 -37.35,-1.51171 -0.86,0 -1.76,0.91796 -1.76,2.39062 v 4.3945 c 0,2.6485 2.38,2.9297 5.9,2.9297 24.1,0 27.62,7.3555 27.62,32.9492 0,14.3946 4.95,122.5786 4.95,133.1566 0,15.586 -7.61,22.05 -34.01,22.05 -0.91,0 -1.52,1.446 -1.52,3.231 v 3.809 c 0,1.496 0.9,2.636 2.4,2.636 11.14,0 21.75,-1.457 33.47,-1.457 7.34,0 14.99,1.457 22.36,1.457 2.09,0 4.14,-4.715 5.56,-8.523 l 63.52,-151.9767 h 1.39 l 67.71,160.4997" /><path
         id="path48"
         style="fill:#040606;fill-opacity:1;fill-rule:nonzero;stroke:none"
         d="m 2014.27,114.629 c -21.24,12.656 -29.76,24.434 -29.76,47.305 0,36.777 29.97,57.336 69.67,57.336 11.19,0 27.06,-3.79 37.08,-8.215 l 2.05,-36.758 v -1.453 c 0,-1.485 -2.96,-2.051 -7.1,-2.051 -3.82,0 -4.36,1.746 -4.68,4.668 -2.04,19.707 -16.16,32.383 -37.05,32.383 -19.96,0 -35.55,-14.114 -35.55,-32.961 0,-21.153 12.95,-29.375 42.34,-44.949 29.13,-15.305 54.4,-28.789 54.4,-65.559 0,-40.0117 -36.21,-60.83984 -72.91,-60.83984 -12.06,0 -32.08,3.80859 -43.24,8.51564 -2.34,1.1719 -3.22,4.9922 -4.13,11.4648 l -3.52,27.6289 c 0,1.7461 5.9,1.7461 7.65,1.7461 0.95,0 1.78,-0.5547 2.34,-2.625 C 1998.64,27.9297 2013.97,15 2037.46,15 c 20.59,0 40.25,17.9297 40.25,37.8906 0,19.1211 -10.85,30.586 -26.13,39.6875 l -37.31,22.0509" /><path
         id="path50"
         style="fill:#040606;fill-opacity:1;fill-rule:nonzero;stroke:none"
         d="m 2228.36,39.1836 c 0,-21.7773 14.67,-21.7773 32.91,-21.7773 l 1.79,-1.4454 v -4.7148 c 0,-3.54688 -1.49,-3.54688 -6.21,-3.54688 -5.86,0 -20.24,1.49609 -40.83,1.49609 -16.19,0 -41.48,-1.49609 -48.5,-1.49609 -0.63,2.08984 -1.18,3.54688 -1.18,5.28518 0,0.9179 0.31,2.6758 1.18,3.2617 l 2.96,1.1602 h 3.51 c 26.76,0 27.93,9.1406 27.93,33.5273 V 190.277 l -0.87,13.508 h -39.39 c -22.36,0 -25.93,-14.094 -31.49,-32.91 -0.56,-1.777 -1.76,-2.648 -3.51,-2.648 -4.17,0 -6.73,1.183 -6.73,2.921 0,5.008 3.48,32.344 3.48,55.586 0,1.153 4.12,1.153 8.25,1.153 9.41,-12.649 12.33,-12.649 24.95,-12.649 h 109.35 c 20.59,0 26.49,6.192 33.84,15.305 2.09,0 8.8,0 8.8,-2.656 0,-2.356 -5.87,-26.438 -6.46,-47.629 0,-3.203 -0.92,-9.383 -2.34,-9.383 -2.67,0 -9.39,1.445 -9.39,2.918 l -1.17,14.727 c -1.22,14.972 -8.25,15.265 -20.32,15.265 h -40.56 V 39.1836" /><path
         id="path52"
         style="fill:#040606;fill-opacity:1;fill-rule:nonzero;stroke:none"
         d="m 2351.75,185.195 c 0,19.075 -14.43,21.164 -31.45,21.164 -1.16,0 -1.16,1.485 -1.16,2.633 v 3.242 c 0,2.649 4.99,2.922 15.27,2.922 11.73,0 24.99,-1.457 37.36,-1.457 11.74,0 23.49,1.457 35.22,1.457 h 62.08 c 2.31,0 2.62,-2.636 2.62,-5.859 v -35.879 c 0,-1.172 -0.62,-2.352 -2.09,-2.352 -2.34,0 -7.05,-0.273 -7.34,3.231 l -0.9,9.133 c -1.74,18.816 -14.67,22.05 -31.11,22.05 h -30.31 c -16.43,0 -21.74,-3.539 -21.74,-25.863 v -53.219 c 0,-0.878 1.76,-2.367 2.4,-2.367 l 34.63,1.172 c 17.62,0.61 22.67,6.176 27.06,21.789 0.57,1.746 1.49,2.363 4.74,2.363 2.03,0 3.45,-0.351 3.45,-1.796 0,-6.18 -1.72,-19.707 -1.72,-29.383 0,-15.891 1.72,-24.4143 1.72,-29.4065 0,-1.7656 -2.89,-3.5351 -4.68,-3.5351 -2.33,0 -4.38,0.8906 -4.99,3.8476 -1.46,7.8907 -1.46,13.484 -2.91,17.598 -1.52,4.414 -5.05,6.484 -13.86,6.789 l -41.72,0.855 c -4.12,0 -4.12,-1.441 -4.12,-3.496 V 40.8203 c 0,-21.1406 15.58,-21.7265 35.87,-21.7265 h 15.88 c 15.59,0 26.45,0.3085 33.81,4.7226 6.5,3.793 15.57,21.7188 18.77,29.0742 3.87,0 8.83,-0.8672 8.83,-2.9179 0,-0.9024 -0.86,-3.2344 -1.44,-4.7071 l -8.25,-29.6914 c -2.34,-7.96482 -3.79,-7.96482 -7.64,-7.96482 -31.74,0 -62.92,1.51171 -105.5,1.51171 -9.71,0 -34.41,-1.51171 -49.39,-1.51171 -0.91,0 -1.79,2.94922 -1.79,4.73442 0,2.3437 0.59,4.9804 1.79,4.9804 25.54,1.1914 32.61,3.836 32.61,30.8789 V 185.195" /><path
         id="path54"
         style="fill:#040606;fill-opacity:1;fill-rule:nonzero;stroke:none"
         d="m 2562.73,120.82 c 3.81,-0.3 7.36,-0.617 11.15,-0.617 23.49,0 52.93,8.254 52.93,42.942 0,25.839 -17.64,42.617 -43.5,42.617 -20.02,0 -20.58,-4.696 -20.58,-13.516 z m -26.45,62.618 c 0,14.667 -0.62,22.05 -19.16,22.05 h -12.07 c -1.72,0 -2.03,3.203 -2.03,5.567 0,1.472 0.92,4.101 2.03,4.101 17.07,0 34.48,-0.859 51.5,-0.859 13.54,0 26.76,0.859 40.26,0.859 30,0 59.4,-20 59.4,-50.832 0,-26.734 -24.4,-44.676 -47.33,-48.23 v -0.567 c 11.46,-2.636 23.53,-24.109 26.44,-28.7887 l 32.35,-49.4219 c 10.25,-15.5976 17.03,-18.5273 34.7,-19.4062 l 1.73,-1.75 v -5.6016 c 0,-2.60938 -2.05,-2.94141 -3.21,-2.94141 -6.21,0 -15.33,0.91015 -19.72,0.91015 -7.07,0 -14.11,-0.91015 -21.14,-0.91015 -6.78,0 -20,19.70701 -37.33,50.55861 -19.12,33.8281 -30.32,52.3592 -49.74,52.3592 -2.3,0 -5.86,0 -10.23,-0.613 V 37.9023 c 0,-10.5781 0,-20.5781 14.71,-20.5781 11.12,0 16.16,0 16.16,-2.3125 0,-5.59764 -0.86,-7.39451 -5.35,-7.39451 -15.29,0 -27.88,1.5039 -40.54,1.5039 -4.97,0 -37.56,-1.5039 -41.72,-1.5039 -1.76,0 -2.36,3.82031 -2.36,6.19921 0,2.6289 1.16,3.2266 7.03,3.5078 20.27,0.8906 25.62,3.8281 25.62,24.1289 V 183.438" /><path
         id="path56"
         style="fill:#040606;fill-opacity:1;fill-rule:nonzero;stroke:none"
         d="m 2773.64,51.6523 c 0,-32.3554 33.23,-32.3554 46.12,-32.3554 40.25,0 83.16,33.2148 83.16,94.6801 0,52.332 -28.19,78.203 -48.5,89.941 -14.08,6.172 -32.62,7.637 -45.25,7.637 -24.07,0 -35.53,-1.739 -35.53,-20.586 z m -26.52,131.1137 c 0,11.16 -2.3,22.625 -13.21,22.625 -3.53,0 -12.89,-1.172 -18.51,-1.172 -1.19,0 -1.19,4.394 -1.19,5.871 0,1.765 0,2.644 5.02,3.797 19.73,4.14 66.7,7.363 91.97,7.363 16.21,0 31.49,-1.473 45.9,-5.266 39.94,-10.906 77.3,-46.472 77.3,-100.543 0,-72.8902 -60.88,-105.85116 -116.73,-105.85116 -27.92,0 -42.64,1.20316 -57.27,1.20316 -14.74,0 -29.4,-0.88284 -44.12,-1.20316 -1.16,0 -1.46,2.64456 -1.46,4.73436 0,2.0547 1.46,4.9727 2.63,4.9727 9.44,1.1914 17.03,1.7695 22.37,5.3125 4.39,2.9414 7.3,7.6562 7.3,17.0312 V 182.766" /><path
         id="path58"
         style="fill:#040606;fill-opacity:1;fill-rule:nonzero;stroke:none"
         d="m 3051.63,101.387 -32.66,84.074 h -0.61 l -27.83,-84.074 z m -65.02,-11.4378 -12.87,-41.7461 c -2.41,-7.6367 -3.54,-14.414 -3.54,-19.1211 0,-9.6797 13.81,-11.7578 21.78,-11.7578 2.6,0 3.18,-1.7578 3.18,-5.5664 0,-2.94921 -0.29,-4.14842 -2.32,-4.14842 -6.8,0 -28.23,1.51171 -36.17,1.51171 -7.95,0 -20.3,-1.51171 -29.11,-1.51171 -5.86,0 -5.86,0.91796 -5.86,4.74612 v 3.2109 c 0,1.4766 2.66,2.082 9.69,2.6563 15.28,1.4648 17.33,4.4062 22.91,20.5664 l 58.19,169.3239 c 5.87,4.985 12.09,11.758 19.43,14.145 l 73.77,-186.1057 c 5.04,-12.3359 10.33,-18.5039 27.34,-18.5039 3.26,0 3.83,-3.5664 3.83,-6.7812 0,-3.25782 -2.03,-3.25782 -5.55,-3.25782 -4.68,0 -23.53,1.51171 -35,1.51171 -11.77,0 -23.53,-0.59375 -35.31,-1.51171 -4.37,0 -4.69,0.91796 -4.69,5.05862 0,3.1992 1.78,4.6562 5.86,4.6562 4.44,0 18.85,0.8985 18.85,7.9688 0,2.3164 -1.17,7.0312 -5.29,17.3164 l -18.79,47.3398 h -70.33" /><path
         id="path60"
         style="fill:#040606;fill-opacity:1;fill-rule:nonzero;stroke:none"
         d="m 3340.98,215.156 c 9.14,0 18.56,-0.847 27.95,-0.847 7.33,0 15,0.847 22.34,0.847 4.4,0 5.26,-1.14 5.26,-2.058 v -4.692 c 0,-2.047 -0.86,-3.523 -1.99,-3.523 -2.07,0 -5.34,0.597 -8.85,0.597 -17.03,0 -17.03,-8.527 -17.03,-27.648 0,-16.746 3.2,-126.6875 3.2,-142.8593 0,-8.2149 4.14,-17.6485 16.78,-17.6485 11.72,0 13.24,-0.5937 13.24,-3.2422 0,-3.5234 -1.78,-6.47262 -2.66,-6.47262 -15.62,0 -27.93,1.51171 -40.29,1.51171 -12.34,0 -24.98,-1.51171 -37.66,-1.51171 -2.03,0 -2.32,1.1914 -2.32,2.94922 v 2.957 c 0,2.9297 2.64,3.8086 16.13,3.8086 5.9,0 11.18,7.0508 11.18,17.3438 0,31.7383 -1.14,100.242 -2.31,150.527 -1.17,0.266 -0.92,0.266 -0.92,0.266 -16.46,-33.809 -37.91,-82.895 -47.89,-109.0547 L 3267.53,3.78906 c -0.32,-0.85937 -1.24,-1.73828 -2.64,-1.73828 -1.51,0 -2.66,1.48438 -3.56,5.5586 -1.75,7.40232 -4.41,14.44142 -7.36,21.47262 l -55.55,135.254 c -2.07,5 -3.81,8.516 -4.98,8.516 -1.17,0 -1.17,-5.868 -1.17,-9.129 0,-23.235 -3.57,-111.9847 -3.57,-126.4066 0,-12.6367 0,-19.9922 25.9,-19.9922 1.77,0 2.05,-1.457 2.05,-4.9804 0,-1.1719 -0.28,-4.73442 -1.51,-4.73442 -4.06,0 -18.47,1.51171 -34.37,1.51171 -16.78,0 -33.23,-1.51171 -37.31,-1.51171 -0.88,0 -1.74,0.91796 -1.74,2.39062 v 4.3945 c 0,2.6485 2.31,2.9297 5.82,2.9297 24.15,0 27.66,7.3555 27.66,32.9492 0,14.3946 5,122.5786 5,133.1566 0,15.586 -7.6,22.05 -34.14,22.05 -0.82,0 -1.46,1.446 -1.46,3.231 v 3.809 c 0,1.496 0.91,2.636 2.38,2.636 11.17,0 21.74,-1.457 33.57,-1.457 7.31,0 14.92,1.457 22.29,1.457 2.07,0 4.12,-4.715 5.6,-8.523 L 3271.9,54.6563 h 1.5 l 67.58,160.4997" /><path
         id="path62"
         style="fill:#231f20;fill-opacity:1;fill-rule:nonzero;stroke:none"
         d="m 366.496,318.906 0.063,51.614 -23.235,-21.836 c 0,0 -13.554,-13.899 -44.207,-21.797 -30.637,-7.856 -53.898,-6.426 -67.82,-3.614 -13.938,2.782 -26.477,6.512 -34.367,10.262 -7.91,3.699 -21.836,10.695 -34.344,30.254 -7.414,11.524 -7.414,40.422 -7.414,40.422 l 0.555,53.859 -4.09,91.141 c 0,0 13.797,-0.617 23.23,-0.652 11.582,-0.067 21.582,2.527 21.867,1.031 0.45,-2.809 0.75,-126.863 0.75,-126.863 0,0 1.368,-26.477 7.864,-39.961 11.402,-23.672 62.238,-25.625 62.238,-25.625 0,0 7.887,-0.957 25.562,0.425 17.618,1.36 52.071,6.45 63.204,27.336 0,0 7.91,8.821 10.769,58.985 2.981,52.539 -4.051,104.551 -4.051,104.551 l 49.258,2.265 c 0,0 -3.332,-37.144 -3.41,-106.851 -0.066,-69.68 6.371,-110.579 6.371,-110.579 z m -16.531,-121.98 -23.676,-23.692 -42.816,42.813 -42.813,-42.813 -23.699,23.692 42.824,42.82 -42.824,42.805 23.699,23.687 42.813,-42.8 42.816,42.8 23.676,-23.687 -42.797,-42.805 z m -133.004,304.91 23.699,23.695 42.813,-42.804 42.816,42.804 23.676,-23.695 -42.797,-42.805 42.797,-42.832 -23.676,-23.679 -42.816,42.812 -42.813,-42.812 -23.699,23.679 42.824,42.832 z m 0,157.559 23.699,23.703 42.813,-42.813 42.816,42.813 23.676,-23.703 -42.797,-42.801 42.797,-42.824 -23.676,-23.692 -42.816,42.813 -42.813,-42.813 -23.699,23.692 42.824,42.824 z M 0,715.406 V 148.473 H 566.93 V 715.406 H 0" /></g></g></svg>